<?xml version="1.0" encoding="UTF-8" standalone="no"?>
<!-- Generator: Adobe Illustrator 16.0.0, SVG Export Plug-In . SVG Version: 6.00 Build 0)  -->

<svg
   xmlns:dc="http://purl.org/dc/elements/1.1/"
   xmlns:cc="http://creativecommons.org/ns#"
   xmlns:rdf="http://www.w3.org/1999/02/22-rdf-syntax-ns#"
   xmlns:svg="http://www.w3.org/2000/svg"
   xmlns="http://www.w3.org/2000/svg"
   xmlns:sodipodi="http://sodipodi.sourceforge.net/DTD/sodipodi-0.dtd"
   xmlns:inkscape="http://www.inkscape.org/namespaces/inkscape"
   version="1.1"
   id="Capa_1"
   x="0px"
   y="0px"
   width="70"
   height="70"
   viewBox="0 0 69.999999 70.000001"
   enable-background="new 0 0 65.638 69.891"
   xml:space="preserve"
   inkscape:version="0.91 r13725"
   sodipodi:docname="acacito.svg"
   inkscape:export-filename="/home/boris/Trabajos/Acacito/logo/logo.png"
   inkscape:export-xdpi="68.559998"
   inkscape:export-ydpi="68.559998"><metadata
     id="metadata25"><rdf:RDF><cc:Work
         rdf:about=""><dc:format>image/svg+xml</dc:format><dc:type
           rdf:resource="http://purl.org/dc/dcmitype/StillImage" /><dc:title></dc:title></cc:Work></rdf:RDF></metadata><defs
     id="defs23" /><sodipodi:namedview
     pagecolor="#ffffff"
     bordercolor="#666666"
     borderopacity="1"
     objecttolerance="10"
     gridtolerance="10"
     guidetolerance="10"
     inkscape:pageopacity="0"
     inkscape:pageshadow="2"
     inkscape:window-width="1501"
     inkscape:window-height="965"
     id="namedview21"
     showgrid="false"
     inkscape:zoom="10.079873"
     inkscape:cx="30.376928"
     inkscape:cy="31.736894"
     inkscape:window-x="0"
     inkscape:window-y="0"
     inkscape:window-maximized="0"
     inkscape:current-layer="Capa_1" /><symbol
     id="BolsitaA"
     viewBox="-15.199 -15.812 29.719 31.623"
     transform="translate(0,0.10900116)"><polygon
       points="-15.199,-13.955 -13.181,-15.812 -3.305,-15.812 -3.044,-15.812 -0.634,-15.812 -0.374,-15.812 12.502,-15.812 14.52,-13.955 13.177,6.188 -0.374,6.188 -0.634,6.188 -3.044,6.188 -3.305,6.188 -13.856,6.188 "
       id="polygon4"
       style="fill:#ff0000" /><path
       stroke-miterlimit="10"
       d="m -6.424,5.623 c 0,5.112 2.724,9.257 6.084,9.257 3.358,0 6.085,-4.145 6.085,-9.257"
       id="path6"
       inkscape:connector-curvature="0"
       style="fill:none;stroke:#ff0000;stroke-width:1.86150002;stroke-linecap:round;stroke-linejoin:round;stroke-miterlimit:10" /><g
       id="g8"><g
         id="g10"><g
           id="g12"><line
             stroke-miterlimit="10"
             x1="-3.8770001"
             y1="-3.724"
             x2="-3.8770001"
             y2="1.597"
             id="line14"
             style="fill:none;stroke:#eeeeee;stroke-width:1.61329997;stroke-linecap:round;stroke-linejoin:round;stroke-miterlimit:10" /><line
             stroke-miterlimit="10"
             x1="3.369"
             y1="-3.724"
             x2="3.369"
             y2="1.597"
             id="line16"
             style="fill:none;stroke:#eeeeee;stroke-width:1.61329997;stroke-linecap:round;stroke-linejoin:round;stroke-miterlimit:10" /></g></g><polyline
         stroke-miterlimit="10"
         points="    -7.323,-6.669 -5.927,-9.872 5.287,-9.872 6.645,-6.696   "
         id="polyline18"
         style="fill:none;stroke:#eeeeee;stroke-width:1.24100006;stroke-linecap:round;stroke-linejoin:round;stroke-miterlimit:10" /></g></symbol><path
     style="fill:#d40000;fill-opacity:1;fill-rule:evenodd;stroke:#000000;stroke-width:0;stroke-linecap:butt;stroke-linejoin:miter;stroke-miterlimit:3.5;stroke-dasharray:none;stroke-opacity:1"
     d="m 35.581396,1.949191 c -3.514691,0.044922 -6.366482,1.4367159 -8.419922,3.4179687 -2.05344,1.9812529 -3.370573,4.4909297 -4.261719,6.9199213 -1.759916,4.796993 -1.887647,9.436033 -1.890625,9.552734 L 7.1087386,21.814425 4.1770981,63.904269 8.1556136,68.197237 62.706396,68.093722 66.788427,64.429659 64.067724,21.91794 50.772802,21.894503 c -0.0053,-0.0948 -0.277887,-4.848907 -2.189453,-9.712891 C 47.617955,9.7251741 46.228873,7.2008605 44.118505,5.230441 42.008137,3.2600214 39.107106,1.9041286 35.581396,1.949191 Z m 0.04687,3.7011718 c 2.599346,-0.033222 4.42873,0.8509103 5.964843,2.2851563 1.536114,1.434246 2.710869,3.4773579 3.544922,5.5996089 1.536083,3.908567 1.871897,7.745109 1.917969,8.351562 L 24.714203,21.84567 c 0.01497,-0.37025 0.202268,-4.311396 1.660156,-8.285156 0.764718,-2.084387 1.870115,-4.0981125 3.355469,-5.5312499 1.485354,-1.4331374 3.288072,-2.3455429 5.898438,-2.3789063 z m 7.580078,24.2031242 a 1.650165,1.650165 0 0 1 1.673828,1.673828 l 0,11.402344 a 1.6503905,1.6503905 0 0 1 -3.300781,0 l 0,-11.402344 a 1.650165,1.650165 0 0 1 1.626953,-1.673828 z m -15.251953,0.07422 a 1.650165,1.650165 0 0 1 1.673828,1.673828 l 0,11.402344 a 1.650165,1.650165 0 1 1 -3.298828,0 l 0,-11.402344 a 1.650165,1.650165 0 0 1 1.625,-1.673828 z m -7.263672,17.681641 a 1.30013,1.30013 0 0 1 1.226562,0.804687 l 2.550782,5.949219 21.976562,0 2.47461,-5.798828 a 1.3003723,1.3003723 0 0 1 2.392578,1.019531 l -2.814454,6.589844 a 1.30013,1.30013 0 0 1 -1.195312,0.789062 l -23.691406,0 a 1.30013,1.30013 0 0 1 -1.195308,-0.78711 l -2.886719,-6.738281 a 1.30013,1.30013 0 0 1 1.16211,-1.828125 z"
     id="path4157"
     inkscape:connector-curvature="0" /></svg>